<svg aria-hidden="true" style="width:0;height:0;position:absolute;overflow:hidden" xmlns="http://www.w3.org/2000/svg"><defs><symbol id="award" viewBox="0 0 32 32"><path fill="#039be5" style="fill:var(--color1,#039be5)" d="M11.712 19.395a.982.982 0 0 1-.062.318 1.013 1.013 0 0 1-.523.559 1.018 1.018 0 0 1-.941-.062.995.995 0 0 1-.224-.19c-.058-.065-.067-.086-.114-.159L2.134 6.5c-.015-.029-.031-.057-.045-.087a1.018 1.018 0 0 1 .118-1.022.972.972 0 0 1 .211-.204c.026-.019.055-.035.082-.053l5.196-3 .087-.045c.06-.027.122-.048.186-.063.085-.02.108-.018.194-.025l.099.001c.086.01.109.009.193.032.19.051.363.159.493.307.058.065.067.086.114.159L16 14.517 22.938 2.5c.047-.073.056-.094.114-.159.173-.197.425-.322.686-.339a1.28 1.28 0 0 1 .196.007c.086.015.109.016.191.044.083.028.101.041.179.081l5.196 3c.027.018.056.034.082.053.318.228.483.651.392 1.04a1.019 1.019 0 0 1-.063.186c-.014.03-.03.058-.045.087l-7.67 13.285c-.018.027-.034.056-.053.082a1.021 1.021 0 0 1-1.04.392 1.015 1.015 0 0 1-.622-.446.987.987 0 0 1-.143-.418h-8.626z"/><path fill="#0277bd" style="fill:var(--color2,#0277bd)" d="M16 14.517 22.938 2.5c.047-.073.056-.094.114-.159.173-.197.425-.322.686-.339a1.28 1.28 0 0 1 .196.007c.086.015.109.016.191.044.083.028.101.041.179.081l5.196 3c.027.018.056.034.082.053.318.228.483.651.392 1.04a1.019 1.019 0 0 1-.063.186c-.014.03-.03.058-.045.087l-7.67 13.285c-.018.027-.034.056-.053.082a1.021 1.021 0 0 1-1.04.392 1.015 1.015 0 0 1-.622-.446.987.987 0 0 1-.143-.418H16v-4.878z"/><path fill="#fbc02d" style="fill:var(--color3,#fbc02d)" d="M22 23a6 6 0 1 1-12 0 6 6 0 0 1 12 0z"/><path fill="#f57f17" style="fill:var(--color4,#f57f17)" d="M16 17c3.311 0 6 2.689 6 6s-2.689 6-6 6V17z"/><path fill="#ffeb3b" style="fill:var(--color5,#ffeb3b)" d="M16.011 16a7.03 7.03 0 0 1 2.831.602 7.08 7.08 0 0 1 3.415 3.259 7.052 7.052 0 0 1 .677 4.105 7.014 7.014 0 0 1-4.802 5.703 7.063 7.063 0 0 1-4.827-.208 7.06 7.06 0 0 1-3-2.392A7.037 7.037 0 0 1 9 23.034a7.02 7.02 0 0 1 .786-3.258 7.084 7.084 0 0 1 3.392-3.183A7.02 7.02 0 0 1 16.011 16zm-.019 2a5.03 5.03 0 0 0-2.736.82 5.06 5.06 0 0 0-2.157 3.187 5.034 5.034 0 0 0 .384 3.138 5.071 5.071 0 0 0 3.097 2.65 5.032 5.032 0 0 0 3.33-.173 5.058 5.058 0 0 0 2.6-2.463 5.04 5.04 0 0 0 .215-3.798 5.062 5.062 0 0 0-1.981-2.541 5.024 5.024 0 0 0-2.606-.818L15.992 18z"/><path fill="#fbc02d" style="fill:var(--color3,#fbc02d)" d="M16 16h.011a7.03 7.03 0 0 1 2.831.602 7.08 7.08 0 0 1 3.415 3.259 7.052 7.052 0 0 1 .677 4.105 7.014 7.014 0 0 1-4.802 5.703c-.688.22-1.41.329-2.132.328v-1.998c.652 0 1.305-.127 1.91-.377a5.058 5.058 0 0 0 2.6-2.463 5.04 5.04 0 0 0 .215-3.798 5.062 5.062 0 0 0-1.981-2.541A5.024 5.024 0 0 0 16 18v-2z"/><path fill="#ffeb3b" style="fill:var(--color5,#ffeb3b)" d="M15 22.654c-.027-.009-.054-.018-.081-.029a1.017 1.017 0 0 1-.601-.737 1.015 1.015 0 0 1 .252-.871l.023-.024.707-.707c.186-.183.436-.29.695-.293h.033l.034.001c.346.019.675.232.835.542.089.174.124.374.103.568V24h.028c.025.001.031.001.056.004.373.031.716.286.85.639a1.02 1.02 0 0 1-.207 1.044A1.024 1.024 0 0 1 17 26h-2a1.025 1.025 0 0 1-.782-.377 1.015 1.015 0 0 1-.142-1.006c.097-.233.285-.427.516-.53.128-.057.268-.085.408-.087v-1.346z"/><path fill="#fbc02d" style="fill:var(--color3,#fbc02d)" d="M16 19.993h.028l.034.001c.346.019.675.232.835.542.089.174.124.374.103.568V24h.028c.025.001.031.001.056.004.373.031.716.286.85.639a1.02 1.02 0 0 1-.207 1.044A1.023 1.023 0 0 1 17 26h-1v-6.007z"/></symbol><symbol id="karaoke" viewBox="0 0 32 32"><path fill="#a5d2e8" style="fill:var(--color6,#a5d2e8)" stroke-linejoin="round" stroke-linecap="round" stroke-width="1.077" stroke="#000" d="M4.803 31.126s-1.527.491-2.982-.979-.97-3.012-.97-3.012L16.272 10.06c.381 1.254 1.062 2.435 2.045 3.427s2.152 1.681 3.394 2.065L4.803 31.126z"/><path fill="#e2f3fb" style="fill:var(--color7,#e2f3fb)" stroke-linejoin="round" stroke-linecap="round" stroke-width="1.077" stroke="#000" d="m14.834 16.389-1.153 1.164c-.177.178-.177.468 0 .646s.463.178.64 0l1.153-1.164c.177-.178.177-.468 0-.646s-.463-.178-.64 0v0z"/><path fill="#fff" style="fill:var(--color8,#fff)" stroke-linejoin="round" stroke-linecap="round" stroke-width="1.077" stroke="#000" d="M18.31 13.617c2.945 2.945 7.744 2.921 10.718-.053s2.998-7.773.053-10.718c-2.945-2.945-7.744-2.921-10.718.053s-2.998 7.773-.053 10.718z"/><path fill="#ebf1f5" style="fill:var(--color9,#ebf1f5)" stroke-linejoin="round" stroke-linecap="round" stroke-width="1.077" stroke="#000" d="M29.957 12.442c2.009-2.958 1.722-6.998-.876-9.596-2.6-2.6-6.644-2.886-9.603-.871a1.5 1.5 0 0 1 .478.326l9.815 9.912c.071.072.133.149.187.23v0zm-2.118 2.096c-2.952 1.96-6.951 1.657-9.529-.921-2.621-2.621-2.891-6.71-.822-9.675.073.187.185.362.334.513l9.814 9.912c.064.064.131.121.202.172v0z"/></symbol><symbol id="video" viewBox="0 0 32 32"><path fill="#ff7171" style="fill:var(--color10,#ff7171)" stroke-linejoin="round" stroke-linecap="round" stroke-width="1.077" stroke="#000" d="M25.231 8.308H.616v21.538h24.615z"/><path fill="#fff" style="fill:var(--color8,#fff)" stroke-linejoin="round" stroke-linecap="round" stroke-width="1.077" stroke="#000" d="M9.846 14.716c0-.509.354-.708.79-.447l6.983 4.19c.436.262.436.687 0 .948l-6.983 4.19c-.436.262-.79.059-.79-.447v-8.434z"/><path fill="#ebf1f5" style="fill:var(--color9,#ebf1f5)" stroke-linejoin="round" stroke-linecap="round" stroke-width="1.077" stroke="#000" d="M28.308 6.769V5.231H3.693v3.077h21.538V26.77h3.077z"/><path fill="#ebf1f5" style="fill:var(--color9,#ebf1f5)" stroke-linejoin="round" stroke-linecap="round" stroke-width="1.077" stroke="#000" d="M31.385 3.692V2.154H6.77v3.077h21.538v18.462h3.077z"/></symbol><symbol id="movie" viewBox="0 0 32 32"><path fill="#76b6ff" style="fill:var(--color11,#76b6ff)" stroke-linejoin="round" stroke-linecap="round" stroke-width="1.077" stroke="#000" d="M22.159 12.557V8.308a1.54 1.54 0 0 0-1.541-1.538H2.155c-.854 0-1.541.689-1.541 1.538v15.385c0 .848.69 1.538 1.541 1.538h18.463c.854 0 1.541-.689 1.541-1.538v-4.215l7.854 4.014c.758.388 1.371.012 1.371-.838V9.381c0-.851-.614-1.224-1.371-.838l-7.854 4.014z"/></symbol></defs></svg>