<svg width="18" height="18" viewBox="0 0 64 64" xmlns="http://www.w3.org/2000/svg"><g data-name="20_Online Learnning" id="logo"><path d="M59 49H5a1 1 0 0 1-1-1V8a1 1 0 0 1 1-1h54a1 1 0 0 1 1 1v40a1 1 0 0 1-1 1Z" style="fill:#0455bf"/><path d="M46 47A40 40 0 0 1 6 7H5a1 1 0 0 0-1 1v40a1 1 0 0 0 1 1h54a1 1 0 0 0 1-1v-1Z" style="fill:#004787"/><path d="M55 45H9a1 1 0 0 1-1-1V12a1 1 0 0 1 1-1h46a1 1 0 0 1 1 1v32a1 1 0 0 1-1 1Z" style="fill:#fdfeff"/><path d="M42 43a32 32 0 0 1-32-32H9a1 1 0 0 0-1 1v32a1 1 0 0 0 1 1h46a1 1 0 0 0 1-1v-1Z" style="fill:#dfeaef"/><path style="fill:#0455bf" d="M45 22h2v14h-2z"/><path style="fill:#004787" d="M45 23h1v14h-1z"/><path d="M48 43h-4a1 1 0 0 1-1-1v-7a1 1 0 0 1 1-1h4a1 1 0 0 1 1 1v7a1 1 0 0 1-1 1Z" style="fill:#f74e0c"/><path d="M46 41a1 1 0 0 1-1-1v-6h-1a1 1 0 0 0-1 1v7a1 1 0 0 0 1 1h4a1 1 0 0 0 1-1v-1Z" style="fill:#cc2600"/><path d="M41 24H21v9a1 1 0 0 0 .311.724 15.5 15.5 0 0 0 21.378 0A1 1 0 0 0 43 33v-9Z" style="fill:#0455bf"/><path d="M41 24H21v9a1 1 0 0 0 .311.724 15.5 15.5 0 0 0 21.378 0A1 1 0 0 0 43 33v-9Z" style="fill:#0455bf"/><path d="M43 23H21v2.765l9.861 4.035a3 3 0 0 0 2.274 0L43 25.765V23Z" style="fill:#004787"/><path d="M32 29.021a.988.988 0 0 1-.378-.075L16.9 22.926a1 1 0 0 1 0-1.852l14.727-6.02a.99.99 0 0 1 .756 0l14.727 6.02a1 1 0 0 1 0 1.852l-14.727 6.02a.988.988 0 0 1-.383.075ZM53 57H11a9.01 9.01 0 0 1-9-9 1 1 0 0 1 1-1h58a1 1 0 0 1 1 1 9.01 9.01 0 0 1-9 9Z" style="fill:#0455bf"/><path d="M55 55H13a9.01 9.01 0 0 1-8.941-8H3a1 1 0 0 0-1 1 9.01 9.01 0 0 0 9 9h42a8.984 8.984 0 0 0 7.276-3.724A8.942 8.942 0 0 1 55 55Z" style="fill:#004787"/><path style="fill:#febc00" d="M39 50H25l-2-3h18l-2 3z"/><path d="M24.667 47H23l2 3h14l.667-1H28.4a4.492 4.492 0 0 1-3.733-2Z" style="fill:#edaa03"/></g></svg>