<svg version="1.1" id="Layer_1" xmlns="http://www.w3.org/2000/svg" x="0" y="0" viewBox="0 0 512 512" style="enable-background:new 0 0 512 512" xml:space="preserve"><path style="fill:#f4ad47" d="M377.866 294.33c-63.042 5.373-133.527 15.042-196.569 20.415l-49.259-85.318c36.174-51.91 79.79-108.116 115.964-160.027l129.864 224.93z"/><path transform="rotate(-30 107.621 300.421)" style="fill:#e8594f" d="M51.003 251.204h113.258v98.419H51.003z"/><path transform="rotate(150 186.984 413.108)" style="fill:#efefef" d="M165.012 325.021h43.938v176.168h-43.938z"/><path transform="rotate(150 224.888 384.579)" style="fill:#e8594f" d="M199.885 359.577h49.997v49.997h-49.997z"/><path style="fill:#f4ad47" d="m46.079 307.071-25.258 14.583c-9.962 5.751-13.375 18.489-7.623 28.45l4.169 7.22c5.751 9.962 18.489 13.375 28.45 7.623l25.258-14.583-24.996-43.293z"/><path style="fill:#231f20" d="M257.02 64.193a10.42 10.42 0 0 0-8.576-5.198c-3.537-.165-6.948 1.528-8.986 4.45-18.008 25.841-38.248 53.267-57.821 79.79-19.199 26.016-39.022 52.885-56.865 78.417l-96.008 55.43a10.41 10.41 0 0 0-3.813 14.223l6.9 11.952-16.24 9.376C.696 321.248-4.433 340.392 4.179 355.31l4.169 7.222c5.563 9.636 15.938 15.623 27.074 15.624h.001a31.24 31.24 0 0 0 15.6-4.19l16.239-9.376 6.902 11.953a10.411 10.411 0 0 0 14.227 3.813l31.711-18.307 82.878 143.548a10.411 10.411 0 0 0 14.227 3.813l38.051-21.969a10.41 10.41 0 0 0 3.813-14.225l-29.214-50.601 34.382-19.85a10.41 10.41 0 0 0 3.813-14.225l-24.996-43.296a10.412 10.412 0 0 0-14.225-3.812l-34.383 19.851-18.254-31.617 8.212-4.742c31.032-2.687 64.215-6.419 96.345-10.037 32.755-3.69 66.623-7.506 98.005-10.181a10.414 10.414 0 0 0 8.135-15.583L257.02 64.193zm-26.799 300.482 14.583 25.257-25.259 14.583-14.583-25.258 25.259-14.582zm-173.37-18.121-16.239 9.375a10.254 10.254 0 0 1-5.186 1.399 10.464 10.464 0 0 1-9.039-5.211l-4.169-7.222c-2.872-4.972-1.161-11.355 3.81-14.225l16.24-9.376 13.358 23.138 1.225 2.122zm30.143 10.557-6.898-11.947c-.001-.003-.003-.004-.003-.007l-24.996-43.294-.003-.003-6.899-11.95 80.053-46.218 19.399 33.599 19.399 33.599-11.197 6.464-37.145 21.445c-.004.001-.007.004-.01.007l-31.7 18.305zm148.829 117.498-20.015 11.556-77.672-134.532 20.015-11.555 77.672 134.531zm85.897-185.224-64.698-112.062c-2.874-4.979-9.245-6.686-14.225-3.811s-6.687 9.245-3.811 14.225l60.12 104.13c-6.924.772-13.831 1.55-20.689 2.324-30.475 3.433-61.913 6.973-91.415 9.605l-21.314-36.916-21.314-36.916c17.029-24.232 35.814-49.687 54.023-74.361 16.325-22.12 33.111-44.867 48.741-66.877l113.56 196.691c-12.789 1.205-25.855 2.555-38.978 3.968zM348.563 161.296a10.411 10.411 0 0 0 14.227 3.811l97.412-56.242c4.98-2.875 6.687-9.245 3.811-14.225s-9.246-6.687-14.225-3.811l-97.412 56.242c-4.982 2.875-6.688 9.243-3.813 14.225zM333.904 118.043a10.413 10.413 0 0 0 14.227-3.811l56.242-97.414c2.875-4.98 1.169-11.349-3.811-14.225-4.98-2.877-11.349-1.17-14.225 3.811l-56.242 97.414c-2.878 4.98-1.172 11.35 3.809 14.225zM501.587 185.201H389.103c-5.751 0-10.414 4.663-10.414 10.414 0 5.751 4.663 10.414 10.414 10.414h112.483c5.751 0 10.414-4.663 10.414-10.414 0-5.751-4.661-10.414-10.413-10.414z"/></svg>