<svg version="1.1" id="Layer_1" xmlns="http://www.w3.org/2000/svg" x="0" y="0" viewBox="0 0 508 508" style="enable-background:new 0 0 508 508" xml:space="preserve"><circle style="fill:#324a5e" cx="254" cy="254" r="254"/><path style="fill:#f9b54c" d="m421.2 317.6-10.4-14.4c-12-16.8-26-32-42-45.2L332 226c-4.8-4.4-12.4-3.6-16.4 1.6-3.6 4.8-2.8 11.6 1.6 15.6l28.4 23.6c.4.4.4 1.2 0 1.6s-1.2.4-2 0L298 230.8c-4-3.2-10-4-14-1.2 3.2-4 3.6-9.6.4-14 0-.4-.4-.4-.8-.8-4-4.4-11.2-4.8-16-1.2l-60 42.4c-.4.4-1.2.4-1.6-.4-.4-.4-.4-1.2.4-1.6l54.4-38.8c5.6-4 6.8-12 2.8-17.6-4-5.2-11.2-6.4-16.8-2.8L184 238.4c7.2-12 12-24.8 10.8-36-.4-5.6-8-8.4-13.6-6.4-2.4.8-5.2 2.8-6.8 6.4 0 0-2 17.2-24.8 30.8-23.2 13.6-29.2 56.8-29.2 56.8-3.6 16-53.2 49.2-53.2 49.2l38.4 50c23.2-15.2 62-29.6 62-29.6l16.8-6.4c19.2-7.2 37.6-16.8 54.8-28.4l28-19.2 33.2 28c-13.6-4-27.2-4.8-37.6-.8-5.2 2-6 10-2.8 14.8 1.2 2 4 4.4 8 5.2 0 0 17.2-2.4 36.4 16s62.4 13.2 62.4 13.2c16.4-.8 61.2 38.4 61.2 38.4l38.4-50c-20.8-19.2-45.2-52.8-45.2-52.8zM235.6 300c-.4.4-1.2.4-1.6-.4-.4-.4 0-1.2.4-1.6l12.8-9.2 2 1.6-13.6 9.6zm-10-25.2c-.4.4-1.2.4-1.6-.4-.4-.4-.4-1.2.4-1.6l26.8-18.8c.4.8.8 1.6 1.2 2l-26.8 18.8zm85.6 32.8c-.4.4-1.2.4-1.6 0L284 286.8c-.4-2-.8-3.6-2-5.2l29.2 24.4c.4 0 .4.8 0 1.6zm13.6-22.4c-.4.4-1.2.4-1.6 0L288 256c.4-.8.4-2 .4-3.2l36.4 30.4c.4.8.4 1.6 0 2z"/><path style="fill:#ff7058" d="M18 348c12.8 32.4 32.4 61.6 56.4 85.6l76.8-48.8-52-88.4L18 348z"/><path style="fill:#4cdbc4" d="M450 326.4 378.4 400l46.4 42c25.6-23.2 46.4-51.6 60.8-83.6l-35.6-32z"/><path style="fill:#ffd05b" d="M220.8 255.6c6-.4 10.8-5.6 10.8-11.6l-.8-36.8c0-.8.4-1.2 1.2-1.2s1.2.4 1.2 1.2l1.6 58.8c0 6 4.4 11.2 10 12 7.2.8 13.6-4.8 13.2-12l-1.2-53.6c0-.8.4-1.2 1.2-1.2.8 0 1.2.4 1.2 1.2l1.6 70c0 6.8 5.6 12 12.4 12h1.2c6-1.2 10-6.8 10-12.8l-2-73.6c0-.8.4-1.2 1.2-1.2.8 0 1.2.4 1.2 1.2l2 66.8c0 6.8 6 12.4 13.2 12 6.4-.4 11.6-6 11.6-12.4l-1.2-76c6 12.8 14 23.6 24 28.8 5.2 2.8 11.2-2 12.8-7.6.8-2.4.4-6-1.6-9.2 0 0-13.2-11.6-12-38s-31.2-55.6-31.2-55.6c-11.2-12-11.6-71.2-11.6-71.2l-62.8 4c0 27.6-9.6 68-9.6 68l-4 17.6c-4.4 20-6.8 40.8-6.8 61.2l.4 48.4c.8 6 6.4 11.2 12.8 10.8z"/><path style="fill:#e6e9ee" d="M311.2 6.4C292.8 2.4 273.6 0 254 0c-15.6 0-30.8 1.6-45.2 4l-1.6 85.6 102.4 5.6 1.6-88.8z"/></svg>