<svg xmlns="http://www.w3.org/2000/svg" viewBox="0 0 512 512" style="enable-background:new 0 0 512 512" xml:space="preserve" id="procent">
  <path style="fill:#e21b1b" d="M109.128 111.66c0-4.632.496-8.744 1.488-12.328s2.368-6.736 4.128-9.456c1.768-2.72 3.84-5.056 6.256-7a44.995 44.995 0 0 1 7.792-5.056v-.736c-2.04-1.112-4.096-2.496-6.168-4.168-2.08-1.672-3.944-3.728-5.608-6.168-1.672-2.448-3.032-5.32-4.08-8.624-1.056-3.296-1.576-7.088-1.576-11.344V35.652c0-5.136.616-9.576 1.848-13.352 1.232-3.768 2.856-6.976 4.864-9.64 2.008-2.656 4.344-4.808 7-6.44a38.693 38.693 0 0 1 8.2-3.848 42.001 42.001 0 0 1 8.44-1.848c2.816-.304 5.392-.464 7.736-.464 2.416 0 5.008.16 7.792.464 2.784.312 5.592.928 8.44 1.848a37.278 37.278 0 0 1 8.2 3.848c2.624 1.632 4.96 3.768 7 6.392 2.04 2.632 3.672 5.832 4.912 9.592 1.232 3.776 1.848 8.224 1.848 13.352v11.128c0 4.264-.52 8.048-1.576 11.352-1.048 3.304-2.408 6.176-4.08 8.624-1.664 2.44-3.536 4.496-5.608 6.168-2.072 1.664-4.128 3.056-6.168 4.168v.744c2.84 1.424 5.456 3.104 7.832 5.048s4.448 4.28 6.208 7 3.136 5.872 4.128 9.456c.984 3.584 1.488 7.696 1.488 12.328v9.736c0 5.44-.56 10.192-1.672 14.272s-2.64 7.6-4.584 10.568-4.216 5.408-6.816 7.32a35.24 35.24 0 0 1-8.392 4.584c-3 1.152-6.12 1.952-9.36 2.416-3.248.464-6.48.696-9.688.696-3.216 0-6.432-.232-9.64-.696a44.865 44.865 0 0 1-9.32-2.368c-3-1.112-5.792-2.64-8.392-4.584-2.592-1.944-4.832-4.384-6.72-7.32s-3.384-6.448-4.496-10.52c-1.12-4.08-1.672-8.832-1.672-14.272v-9.744h.016zm24.384 11.68c0 4.016.448 7.312 1.344 9.872.888 2.56 2.072 4.568 3.52 6.024a11.632 11.632 0 0 0 5.048 3.016c1.912.552 3.896.832 5.936.832s4.032-.272 5.976-.832 3.664-1.576 5.144-3.064c1.488-1.488 2.696-3.504 3.616-6.072.928-2.56 1.392-5.856 1.392-9.872V105.82c0-3.464-.352-6.416-1.064-8.848-.712-2.448-1.72-4.456-3.016-6.032-1.296-1.568-2.872-2.72-4.728-3.432s-3.888-1.064-6.12-1.064h-2.32c-4.504 0-8.096 1.56-10.752 4.68-2.656 3.128-3.984 8.048-3.984 14.784v17.432h.008zm17.056-54.04c1.792 0 3.48-.296 5.056-.88 1.568-.584 2.944-1.584 4.128-3.016 1.168-1.416 2.096-3.336 2.776-5.744.68-2.416 1.024-5.44 1.024-9.088V37.508c0-6.544-1.104-11.52-3.288-14.92-2.192-3.4-5.8-5.104-10.808-5.104-5 0-8.568 1.736-10.704 5.192s-3.192 8.472-3.192 15.016v12.976c0 3.52.288 6.48.872 8.848.592 2.384 1.44 4.296 2.552 5.752s2.456 2.488 4.032 3.104 3.352.928 5.328.928h2.224zM207.392 46.684c0-6.92.632-12.896 1.896-17.936s2.936-9.272 5.008-12.704 4.464-6.192 7.176-8.296c2.72-2.096 5.512-3.72 8.392-4.856 2.872-1.152 5.752-1.904 8.624-2.272 2.864-.376 5.504-.552 7.92-.552 2.288 0 4.832.168 7.648.504 2.816.344 5.656 1.056 8.52 2.136 2.872 1.08 5.656 2.656 8.344 4.728s5.08 4.832 7.144 8.288 3.736 7.728 5.008 12.792c1.264 5.072 1.896 11.128 1.896 18.168v66.92c0 6.92-.632 12.904-1.896 17.936-1.272 5.04-2.952 9.32-5.056 12.832-2.104 3.52-4.512 6.384-7.232 8.576s-5.504 3.888-8.336 5.096c-2.84 1.208-5.672 2.024-8.488 2.464-2.816.432-5.328.648-7.552.648-2.48 0-5.168-.216-8.064-.648a36.78 36.78 0 0 1-8.72-2.464c-2.896-1.2-5.696-2.88-8.384-5.048s-5.056-5.008-7.096-8.528-3.68-7.816-4.912-12.88c-1.232-5.064-1.848-11.064-1.848-17.984v-66.92h.008zm24.56 77.032c0 6.544 1.184 11.304 3.568 14.272 2.376 2.96 6.008 4.448 10.888 4.448 4.76 0 8.312-1.488 10.656-4.448 2.352-2.968 3.52-7.728 3.52-14.272V37.964c0-6.912-1.168-11.952-3.52-15.112-2.344-3.152-5.896-4.728-10.656-4.728-4.88 0-8.512 1.576-10.888 4.728-2.384 3.16-3.568 8.192-3.568 15.112v85.752zM328.6 69.66c-2.688 0-5.392-.376-8.104-1.136-2.712-.744-5.16-2.224-7.36-4.416s-3.976-5.304-5.344-9.336-2.048-9.328-2.048-15.88v-7.576c0-4.296.328-8.008.992-11.152.656-3.136 1.56-5.816 2.72-8.024 1.16-2.216 2.496-4.016 4-5.384s3.112-2.432 4.816-3.176a20.556 20.556 0 0 1 5.192-1.552 32.413 32.413 0 0 1 5.2-.432c1.6 0 3.272.136 5.024.392 1.744.256 3.456.768 5.128 1.52 1.68.752 3.264 1.808 4.784 3.152 1.504 1.344 2.832 3.128 3.96 5.336 1.136 2.216 2.024 4.904 2.688 8.072.656 3.16.992 6.904.992 11.248v7.568c0 6.464-.736 11.704-2.192 15.744-1.464 4.032-3.312 7.16-5.552 9.376-2.24 2.208-4.696 3.712-7.36 4.496-2.672.776-5.176 1.16-7.536 1.16zm.136-11.248c2.968 0 5.048-1.28 6.224-3.848s1.768-6.568 1.768-11.992V28.844c0-5.48-.584-9.504-1.768-12.104s-3.256-3.888-6.224-3.888c-3.12 0-5.296 1.296-6.544 3.888s-1.872 6.624-1.872 12.104v13.728c0 5.424.624 9.424 1.872 11.992s3.432 3.848 6.544 3.848zm42.736-55.328h12.808L351.8 125.268h-12.872L371.472 3.084zm.144 84.904c0-6.472.72-11.64 2.16-15.528s3.28-6.888 5.512-8.984c2.24-2.104 4.712-3.496 7.4-4.176s5.28-1.024 7.784-1.024c1.6 0 3.272.136 5.024.392 1.744.256 3.456.768 5.128 1.52 1.68.752 3.264 1.8 4.784 3.152 1.504 1.344 2.832 3.128 3.96 5.336 1.136 2.216 2.024 4.904 2.688 8.072.656 3.16.992 6.904.992 11.248v7.568c0 4.336-.344 8.112-1.032 11.312-.68 3.208-1.6 5.944-2.76 8.208s-2.488 4.128-3.992 5.584c-1.512 1.472-3.104 2.616-4.784 3.472-1.672.848-3.384 1.432-5.128 1.736-1.752.304-3.4.464-4.952.464-1.8 0-3.6-.16-5.416-.464s-3.56-.856-5.232-1.664c-1.672-.8-3.256-1.928-4.744-3.4-1.488-1.464-2.776-3.32-3.848-5.584-1.088-2.264-1.944-5.008-2.584-8.24-.632-3.224-.952-7.04-.952-11.424v-7.576h-.008zm14.496 11.248c0 5.432.624 9.424 1.872 11.992 1.248 2.576 3.432 3.856 6.544 3.856 2.968 0 5.048-1.28 6.224-3.856 1.176-2.568 1.768-6.56 1.768-11.992v-13.72c0-5.48-.584-9.504-1.768-12.104s-3.256-3.888-6.224-3.888c-3.12 0-5.296 1.296-6.544 3.888s-1.872 6.624-1.872 12.104v13.72z"/>
  <path style="fill:#c9c9c9" d="M196.032 423.516v88.424h119.936v-88.424h47.904L256 292.26 148.128 423.516zM392.48 291.716v62.968h85.408v-62.968H512l-76.816-93.464-76.816 93.464zM34.112 291.716v62.968h85.408v-62.968h34.112l-76.816-93.464L0 291.716z"/>
</svg>