<svg aria-hidden="true" style="position: absolute; width: 0; height: 0; overflow: hidden;" version="1.1" xmlns="http://www.w3.org/2000/svg" xmlns:xlink="http://www.w3.org/1999/xlink">
<defs>
<symbol id="award" viewBox="0 0 32 32">
<path fill="#039be5" style="fill: var(--color1, #039be5)" d="M11.712 19.395c-0.003 0.109-0.024 0.217-0.062 0.318-0.092 0.245-0.285 0.451-0.523 0.559-0.298 0.135-0.663 0.111-0.941-0.062-0.084-0.052-0.159-0.116-0.224-0.19-0.058-0.065-0.067-0.086-0.114-0.159l-7.714-13.361c-0.015-0.029-0.031-0.057-0.045-0.087-0.148-0.327-0.104-0.733 0.118-1.022 0.059-0.078 0.131-0.147 0.211-0.204 0.026-0.019 0.055-0.035 0.082-0.053l5.196-3c0.029-0.015 0.058-0.031 0.087-0.045 0.060-0.027 0.122-0.048 0.186-0.063 0.085-0.020 0.108-0.018 0.194-0.025 0.033 0 0.066 0.001 0.099 0.001 0.086 0.010 0.109 0.009 0.193 0.032 0.19 0.051 0.363 0.159 0.493 0.307 0.058 0.065 0.067 0.086 0.114 0.159l6.938 12.017 6.938-12.017c0.047-0.073 0.056-0.094 0.114-0.159 0.173-0.197 0.425-0.322 0.686-0.339 0.066-0.004 0.131 0.001 0.196 0.007 0.086 0.015 0.109 0.016 0.191 0.044 0.083 0.028 0.101 0.041 0.179 0.081l5.196 3c0.027 0.018 0.056 0.034 0.082 0.053 0.318 0.228 0.483 0.651 0.392 1.040-0.015 0.064-0.036 0.126-0.063 0.186-0.014 0.030-0.030 0.058-0.045 0.087l-7.67 13.285c-0.018 0.027-0.034 0.056-0.053 0.082-0.228 0.318-0.651 0.482-1.040 0.392-0.255-0.060-0.484-0.224-0.622-0.446-0.079-0.126-0.127-0.27-0.143-0.418h-8.626z"></path>
<path fill="#0277bd" style="fill: var(--color2, #0277bd)" d="M16 14.517l6.938-12.017c0.047-0.073 0.056-0.094 0.114-0.159 0.173-0.197 0.425-0.322 0.686-0.339 0.066-0.004 0.131 0.001 0.196 0.007 0.086 0.015 0.109 0.016 0.191 0.044 0.083 0.028 0.101 0.041 0.179 0.081l5.196 3c0.027 0.018 0.056 0.034 0.082 0.053 0.318 0.228 0.483 0.651 0.392 1.040-0.015 0.064-0.036 0.126-0.063 0.186-0.014 0.030-0.030 0.058-0.045 0.087l-7.67 13.285c-0.018 0.027-0.034 0.056-0.053 0.082-0.228 0.318-0.651 0.482-1.040 0.392-0.255-0.060-0.484-0.224-0.622-0.446-0.079-0.126-0.127-0.27-0.143-0.418h-4.338v-4.878z"></path>
<path fill="#fbc02d" style="fill: var(--color3, #fbc02d)" d="M22 23c0 3.314-2.686 6-6 6s-6-2.686-6-6c0-3.314 2.686-6 6-6s6 2.686 6 6z"></path>
<path fill="#f57f17" style="fill: var(--color4, #f57f17)" d="M16 17c3.311 0 6 2.689 6 6s-2.689 6-6 6v-12z"></path>
<path fill="#ffeb3b" style="fill: var(--color5, #ffeb3b)" d="M16.011 16c0.97 0.002 1.943 0.207 2.831 0.602 1.467 0.653 2.695 1.826 3.415 3.259 0.633 1.259 0.87 2.712 0.677 4.105-0.159 1.145-0.608 2.247-1.295 3.18-0.867 1.177-2.105 2.074-3.507 2.523-1.566 0.5-3.308 0.427-4.827-0.208-1.197-0.5-2.247-1.34-3-2.392-0.837-1.168-1.298-2.599-1.305-4.035-0.005-1.128 0.265-2.257 0.786-3.258 0.729-1.402 1.948-2.546 3.392-3.183 0.888-0.392 1.86-0.594 2.833-0.593zM15.992 18c-0.965 0.002-1.929 0.289-2.736 0.82-1.098 0.724-1.896 1.891-2.157 3.187-0.212 1.051-0.078 2.169 0.384 3.138 0.601 1.261 1.751 2.252 3.097 2.65 1.087 0.322 2.28 0.262 3.33-0.173 1.128-0.467 2.072-1.361 2.6-2.463 0.563-1.171 0.644-2.564 0.215-3.798-0.359-1.033-1.068-1.939-1.981-2.541-0.77-0.506-1.684-0.793-2.606-0.818-0.049-0.001-0.098-0.002-0.146-0.002z"></path>
<path fill="#fbc02d" style="fill: var(--color3, #fbc02d)" d="M16 16h0.011c0.97 0.002 1.943 0.207 2.831 0.602 1.467 0.653 2.695 1.826 3.415 3.259 0.633 1.259 0.87 2.712 0.677 4.105-0.159 1.145-0.608 2.247-1.295 3.18-0.867 1.177-2.105 2.074-3.507 2.523-0.688 0.22-1.41 0.329-2.132 0.328v-1.998c0.652 0 1.305-0.127 1.91-0.377 1.128-0.467 2.072-1.361 2.6-2.463 0.563-1.171 0.644-2.564 0.215-3.798-0.359-1.033-1.068-1.939-1.981-2.541-0.77-0.506-1.684-0.793-2.606-0.818-0.046-0.001-0.092-0.002-0.138-0.002v-2z"></path>
<path fill="#ffeb3b" style="fill: var(--color5, #ffeb3b)" d="M15 22.654c-0.027-0.009-0.054-0.018-0.081-0.029-0.304-0.126-0.539-0.41-0.601-0.737-0.059-0.308 0.037-0.641 0.252-0.871 0.010-0.011 0.012-0.013 0.023-0.024l0.707-0.707c0.186-0.183 0.436-0.29 0.695-0.293 0.011 0 0.022 0 0.033 0 0.015 0.001 0.019 0.001 0.034 0.001 0.346 0.019 0.675 0.232 0.835 0.542 0.089 0.174 0.124 0.374 0.103 0.568v2.896c0.009 0 0.019 0 0.028 0 0.025 0.001 0.031 0.001 0.056 0.004 0.373 0.031 0.716 0.286 0.85 0.639 0.133 0.348 0.053 0.769-0.207 1.044-0.187 0.197-0.452 0.309-0.727 0.313h-2c-0.301-0.004-0.596-0.143-0.782-0.377-0.221-0.277-0.28-0.673-0.142-1.006 0.097-0.233 0.285-0.427 0.516-0.53 0.128-0.057 0.268-0.085 0.408-0.087v-1.346z"></path>
<path fill="#fbc02d" style="fill: var(--color3, #fbc02d)" d="M16 19.993c0.009 0 0.019 0 0.028 0 0.015 0.001 0.019 0.001 0.034 0.001 0.346 0.019 0.675 0.232 0.835 0.542 0.089 0.174 0.124 0.374 0.103 0.568v2.896c0.009 0 0.019 0 0.028 0 0.025 0.001 0.031 0.001 0.056 0.004 0.373 0.031 0.716 0.286 0.85 0.639 0.133 0.348 0.053 0.769-0.207 1.044-0.186 0.197-0.452 0.309-0.727 0.313h-1v-6.007z"></path>
</symbol>
<symbol id="karaoke" viewBox="0 0 32 32">
<path fill="#a5d2e8" style="fill: var(--color6, #a5d2e8)" stroke-linejoin="round" stroke-linecap="round" stroke-miterlimit="4" stroke-width="1.0769" stroke="#000" d="M4.803 31.126c0 0-1.527 0.491-2.982-0.979s-0.97-3.012-0.97-3.012l15.421-17.075c0.381 1.254 1.062 2.435 2.045 3.427s2.152 1.681 3.394 2.065l-16.908 15.574z"></path>
<path fill="#e2f3fb" style="fill: var(--color7, #e2f3fb)" stroke-linejoin="round" stroke-linecap="round" stroke-miterlimit="4" stroke-width="1.0769" stroke="#000" d="M14.834 16.389l-1.153 1.164c-0.177 0.178-0.177 0.468 0 0.646s0.463 0.178 0.64 0l1.153-1.164c0.177-0.178 0.177-0.468 0-0.646s-0.463-0.178-0.64 0v0z"></path>
<path fill="#fff" style="fill: var(--color8, #fff)" stroke-linejoin="round" stroke-linecap="round" stroke-miterlimit="4" stroke-width="1.0769" stroke="#000" d="M18.31 13.617c2.945 2.945 7.744 2.921 10.718-0.053s2.998-7.773 0.053-10.718c-2.945-2.945-7.744-2.921-10.718 0.053s-2.998 7.773-0.053 10.718z"></path>
<path fill="#ebf1f5" style="fill: var(--color9, #ebf1f5)" stroke-linejoin="round" stroke-linecap="round" stroke-miterlimit="4" stroke-width="1.0769" stroke="#000" d="M29.957 12.442c2.009-2.958 1.722-6.998-0.876-9.596-2.6-2.6-6.644-2.886-9.603-0.871 0.174 0.074 0.336 0.183 0.478 0.326l9.815 9.912c0.071 0.072 0.133 0.149 0.187 0.23v0zM27.839 14.538c-2.952 1.96-6.951 1.657-9.529-0.921-2.621-2.621-2.891-6.71-0.822-9.675 0.073 0.187 0.185 0.362 0.334 0.513l9.814 9.912c0.064 0.064 0.131 0.121 0.202 0.172v0 0z"></path>
</symbol>
<symbol id="video" viewBox="0 0 32 32">
<path fill="#ff7171" style="fill: var(--color10, #ff7171)" stroke-linejoin="round" stroke-linecap="round" stroke-miterlimit="4" stroke-width="1.0769" stroke="#000" d="M25.231 8.308h-24.615v21.538h24.615z"></path>
<path fill="#fff" style="fill: var(--color8, #fff)" stroke-linejoin="round" stroke-linecap="round" stroke-miterlimit="4" stroke-width="1.0769" stroke="#000" d="M9.846 14.716c0-0.509 0.354-0.708 0.79-0.447l6.983 4.19c0.436 0.262 0.436 0.687 0 0.948l-6.983 4.19c-0.436 0.262-0.79 0.059-0.79-0.447v-8.434z"></path>
<path fill="#ebf1f5" style="fill: var(--color9, #ebf1f5)" stroke-linejoin="round" stroke-linecap="round" stroke-miterlimit="4" stroke-width="1.0769" stroke="#000" d="M28.308 6.769v-1.538h-24.615v3.077h21.538v18.462h3.077z"></path>
<path fill="#ebf1f5" style="fill: var(--color9, #ebf1f5)" stroke-linejoin="round" stroke-linecap="round" stroke-miterlimit="4" stroke-width="1.0769" stroke="#000" d="M31.385 3.692v-1.538h-24.615v3.077h21.538v18.462h3.077z"></path>
</symbol>
<symbol id="movie" viewBox="0 0 32 32">
<path fill="#76b6ff" style="fill: var(--color11, #76b6ff)" stroke-linejoin="round" stroke-linecap="round" stroke-miterlimit="4" stroke-width="1.0769" stroke="#000" d="M22.159 12.557v-4.249c0-0.848-0.69-1.538-1.541-1.538h-18.463c-0.854 0-1.541 0.689-1.541 1.538v15.385c0 0.848 0.69 1.538 1.541 1.538h18.463c0.854 0 1.541-0.689 1.541-1.538v-4.215l7.854 4.014c0.758 0.388 1.371 0.012 1.371-0.838v-13.273c0-0.851-0.614-1.224-1.371-0.838l-7.854 4.014z"></path>
</symbol>
</defs>
</svg>
