<svg aria-hidden="true" style="position: absolute; width: 0; height: 0; overflow: hidden;" version="1.1" xmlns="http://www.w3.org/2000/svg" xmlns:xlink="http://www.w3.org/1999/xlink">
<defs>
<symbol id="icon-left" viewBox="0 0 32 32">
<path fill="#00ad97" style="fill: var(--color1, #00ad97)" d="M22.633 0.911l1.822 1.822-13.266 13.266 13.266 13.266-1.822 1.822-15.089-15.089z"></path>
<path fill="#00ad97" style="fill: var(--color1, #00ad97)" d="M22.634 32l-16.001-16 16.001-16 2.734 2.734-13.266 13.266 13.266 13.266-2.734 2.734zM8.456 16l14.178 14.178 0.911-0.911-13.266-13.266 13.266-13.266-0.911-0.911-14.178 14.178z"></path>
</symbol>
<symbol id="icon-right" viewBox="0 0 32 32">
<path fill="#00ad97" style="fill: var(--color1, #00ad97)" d="M9.367 31.089l-1.822-1.822 13.266-13.266-13.266-13.266 1.822-1.822 15.089 15.089z"></path>
<path fill="#00ad97" style="fill: var(--color1, #00ad97)" d="M9.367 32l-2.734-2.734 13.266-13.266-13.266-13.266 2.734-2.734 16.001 16-16.001 16zM8.456 29.266l0.911 0.911 14.178-14.178-14.178-14.178-0.911 0.911 13.266 13.266-13.266 13.266z"></path>
</symbol>
</defs>
</svg>
